<?xml version="1.0" standalone="no"?>
<!DOCTYPE svg PUBLIC "-//W3C//DTD SVG 20010904//EN"
 "http://www.w3.org/TR/2001/REC-SVG-20010904/DTD/svg10.dtd">
<svg version="1.0" xmlns="http://www.w3.org/2000/svg"
 width="656.000000pt" height="137.000000pt" viewBox="0 0 656.000000 137.000000"
 preserveAspectRatio="xMidYMid meet">

<g transform="translate(0.000000,137.000000) scale(0.100000,-0.100000)"
fill="#000000" stroke="none">
<path d="M1042 1033 c-29 -12 -42 -62 -42 -168 l0 -105 75 0 75 0 0 105 c0
110 -12 156 -45 169 -19 7 -44 7 -63 -1z"/>
<path d="M1334 1017 l-29 -25 -3 -156 -3 -156 75 0 75 0 3 52 3 51 120 -199
c128 -214 169 -264 215 -264 87 0 90 12 90 370 l0 301 -25 24 c-27 28 -61 31
-90 9 -19 -14 -20 -30 -25 -237 l-5 -222 -40 62 c-22 35 -80 128 -129 207
-113 184 -123 195 -167 202 -29 5 -41 1 -65 -19z"/>
<path d="M2072 1033 c-29 -12 -42 -62 -42 -168 l0 -105 80 0 80 0 0 106 c0
105 -8 137 -39 161 -16 13 -56 16 -79 6z"/>
<path d="M2499 1027 c-31 -24 -39 -56 -39 -161 l0 -106 80 0 80 0 0 106 c0
131 -19 173 -80 173 -14 0 -32 -5 -41 -12z"/>
<path d="M4363 1014 c-34 -34 -27 -64 40 -173 l54 -86 84 -5 c46 -3 119 -3
162 0 l78 5 59 95 c65 103 72 135 37 168 -54 51 -92 21 -187 -145 -35 -62 -67
-113 -70 -113 -3 0 -36 54 -73 120 -38 66 -78 129 -89 140 -29 27 -64 25 -95
-6z"/>
<path d="M5684 1017 l-29 -25 -3 -156 -3 -156 75 0 75 0 3 52 3 51 120 -199
c128 -214 169 -264 215 -264 87 0 90 12 90 370 l0 301 -25 24 c-27 28 -61 31
-90 9 -19 -14 -20 -30 -25 -237 l-5 -222 -40 62 c-22 35 -80 128 -129 207
-113 184 -123 195 -167 202 -29 5 -41 1 -65 -19z"/>
<path d="M314 1009 c-26 -13 -44 -50 -44 -89 l0 -30 155 0 c167 0 202 -8 241
-51 69 -78 56 -280 -21 -348 l-36 -31 -171 0 -171 0 6 -46 c8 -75 16 -79 187
-82 116 -3 163 0 205 13 154 44 234 220 195 426 -20 102 -76 180 -159 221 -41
19 -64 22 -206 25 -101 2 -168 -1 -181 -8z"/>
<path d="M2964 1009 c-26 -13 -44 -50 -44 -89 l0 -28 168 -4 c192 -3 210 -10
243 -81 29 -64 26 -196 -5 -264 -36 -77 -53 -83 -247 -83 l-162 0 6 -47 c8
-77 23 -83 191 -83 174 0 229 14 293 73 24 22 53 57 63 77 52 104 52 287 -1
391 -22 44 -89 106 -138 127 -45 20 -333 28 -367 11z"/>
<path d="M5043 1010 c-27 -11 -43 -40 -43 -79 l0 -31 245 0 c232 0 246 1 265
20 11 11 20 29 20 40 0 11 -9 29 -20 40 -19 19 -33 20 -232 19 -117 0 -223 -4
-235 -9z"/>
<path d="M3662 628 c5 -134 19 -181 66 -232 40 -42 106 -67 193 -73 98 -7 166
9 223 54 71 55 89 104 94 251 l4 122 -74 0 -75 0 -5 -107 c-6 -120 -19 -158
-59 -179 -38 -19 -124 -18 -159 3 -41 24 -50 52 -57 174 l-6 109 -75 0 -74 0
4 -122z"/>
<path d="M5000 690 l0 -60 230 0 c217 0 231 1 250 20 11 11 20 29 20 40 0 11
-9 29 -20 40 -19 19 -33 20 -250 20 l-230 0 0 -60z"/>
<path d="M4548 498 c3 -119 5 -135 24 -155 24 -26 64 -29 91 -8 26 19 36 74
37 193 l0 102 -77 0 -78 0 3 -132z"/>
<path d="M2030 505 c0 -84 4 -124 15 -145 27 -53 103 -53 130 0 11 21 15 61
15 145 l0 115 -80 0 -80 0 0 -115z"/>
<path d="M2460 505 c0 -84 4 -124 15 -145 27 -53 103 -53 130 0 11 21 15 61
15 145 l0 115 -80 0 -80 0 0 -115z"/>
<path d="M1000 500 c0 -78 4 -119 15 -139 24 -48 72 -55 110 -16 24 23 25 30
25 145 l0 120 -75 0 -75 0 0 -110z"/>
<path d="M5000 430 c0 -41 18 -76 47 -89 15 -7 103 -11 238 -11 202 0 216 1
235 20 28 28 25 64 -6 89 -25 20 -39 21 -270 21 l-244 0 0 -30z"/>
</g>
</svg>
